<?xml version="1.0" encoding="UTF-8" standalone="no"?>
<!DOCTYPE svg PUBLIC "-//W3C//DTD SVG 1.1//EN" "http://www.w3.org/Graphics/SVG/1.1/DTD/svg11.dtd">
<svg version="1.1" xmlns="http://www.w3.org/2000/svg" xmlns:xlink="http://www.w3.org/1999/xlink" preserveAspectRatio="xMidYMid meet" viewBox="0 0 640 640" width="640" height="640"><defs><path d="M0 160L80 160L80 240L0 240L0 160Z" id="lHa8TrDJT"></path><path d="M0 240L80 240L80 320L0 320L0 240Z" id="a5wIKu7OYo"></path><path d="M0 320L80 320L80 400L0 400L0 320Z" id="a4bX9URfWH"></path><path d="M0 400L80 400L80 480L0 480L0 400Z" id="bBH7LYoWa"></path><path d="M160 560L240 560L240 640L160 640L160 560Z" id="avLFH9k5D"></path><path d="M240 560L320 560L320 640L240 640L240 560Z" id="b1wfgzddtj"></path><path d="M320 560L400 560L400 640L320 640L320 560Z" id="au8uNNnzA"></path><path d="M400 560L480 560L480 640L400 640L400 560Z" id="a26QDqDk6F"></path><path d="M480 480L560 480L560 560L480 560L480 480Z" id="fIVI8ITHm"></path><path d="M560 400L640 400L640 480L560 480L560 400Z" id="a3VrE4qShJ"></path><path d="M80 480L160 480L160 560L80 560L80 480Z" id="b4Egz52CMV"></path><path d="M560 320L640 320L640 400L560 400L560 320Z" id="c5p3dwdfZc"></path><path d="M560 240L640 240L640 320L560 320L560 240Z" id="b7L3K3xOoc"></path><path d="M560 160L640 160L640 240L560 240L560 160Z" id="a2bhrvSXJ"></path><path d="M80 80L160 80L160 160L80 160L80 80Z" id="banOXtHHO"></path><path d="M480 80L560 80L560 160L480 160L480 80Z" id="b7ej8Pnz9"></path><path d="M400 0L480 0L480 80L400 80L400 0Z" id="aB5dYeFnn"></path><path d="M320 0L400 0L400 80L320 80L320 0Z" id="a1dY7mNHtt"></path><path d="M240 0L320 0L320 80L240 80L240 0Z" id="c2lp5hFelX"></path><path d="M160 0L240 0L240 80L160 80L160 0Z" id="a49PzZ0hUL"></path><path d="M160 80L240 80L240 160L160 160L160 80Z" id="b3VQJvtRw"></path><path d="M160 160L240 160L240 240L160 240L160 160Z" id="a9sJmJSaWi"></path><path d="M80 160L160 160L160 240L80 240L80 160Z" id="d4wccrqSH6"></path><path d="M80 240L160 240L160 320L80 320L80 240Z" id="bN8KrLaBQ"></path><path d="M80 320L160 320L160 400L80 400L80 320Z" id="aiXTB7Ccn"></path><path d="M400 480L480 480L480 560L400 560L400 480Z" id="b1DBSGw96Y"></path><path d="M400 400L480 400L480 480L400 480L400 400Z" id="a1j7RRRsqs"></path><path d="M480 400L560 400L560 480L480 480L480 400Z" id="d4DT6S1PeN"></path><path d="M480 320L560 320L560 400L480 400L480 320Z" id="azDYvSJ1r"></path><path d="M480 240L560 240L560 320L480 320L480 240Z" id="f18L6MwaHW"></path><path d="M240 80L320 80L320 160L240 160L240 80Z" id="a2pX1EBkZB"></path><path d="M320 80L400 80L400 160L320 160L320 80Z" id="b1dwBnOF0v"></path><path d="M400 80L480 80L480 160L400 160L400 80Z" id="a2BNy0qelz"></path><path d="M480 160L560 160L560 240L480 240L480 160Z" id="b2243N7Mg0"></path><path d="M400 240L480 240L480 320L400 320L400 240Z" id="coY1MeUEX"></path><path d="M400 320L480 320L480 400L400 400L400 320Z" id="g3R0nu1Sx8"></path><path d="M320 400L400 400L400 480L320 480L320 400Z" id="b921eU7XO"></path><path d="M240 400L320 400L320 480L240 480L240 400Z" id="c6vkiXWP8N"></path><path d="M320 240L400 240L400 320L320 320L320 240Z" id="c1BcfrtEBa"></path><path d="M320 320L400 320L400 400L320 400L320 320Z" id="a5YsOTZzm"></path><path d="M240 240L320 240L320 320L240 320L240 240Z" id="b3fpJFreM"></path><path d="M240 320L320 320L320 400L240 400L240 320Z" id="aDD1sbycf"></path><path d="M160 400L240 400L240 480L160 480L160 400Z" id="b3QyOHN1Np"></path><path d="M400 160L480 160L480 240L400 240L400 160Z" id="b2r1AZa4PC"></path><path d="M240 160L320 160L320 240L240 240L240 160Z" id="d8BvVYLBu"></path><path d="M320 160L400 160L400 240L320 240L320 160Z" id="b2bDHvMqRe"></path><path d="M160 240L240 240L240 320L160 320L160 240Z" id="flZWi0O7D"></path><path d="M160 320L240 320L240 400L160 400L160 320Z" id="b3YUevd81"></path><path d="M80 400L160 400L160 480L80 480L80 400Z" id="d1AqzQBfn5"></path><path d="M160 480L240 480L240 560L160 560L160 480Z" id="eCuKbmHNK"></path><path d="M240 480L320 480L320 560L240 560L240 480Z" id="aKr7iVTjk"></path><path d="M320 480L400 480L400 560L320 560L320 480Z" id="aKVFgqyhQ"></path></defs><g><g><g><use xlink:href="#lHa8TrDJT" opacity="1" fill="#000000" fill-opacity="1"></use></g><g><use xlink:href="#a5wIKu7OYo" opacity="1" fill="#000000" fill-opacity="1"></use></g><g><use xlink:href="#a4bX9URfWH" opacity="1" fill="#000000" fill-opacity="1"></use></g><g><use xlink:href="#bBH7LYoWa" opacity="1" fill="#000000" fill-opacity="1"></use></g><g><use xlink:href="#avLFH9k5D" opacity="1" fill="#000000" fill-opacity="1"></use></g><g><use xlink:href="#b1wfgzddtj" opacity="1" fill="#000000" fill-opacity="1"></use></g><g><use xlink:href="#au8uNNnzA" opacity="1" fill="#000000" fill-opacity="1"></use></g><g><use xlink:href="#a26QDqDk6F" opacity="1" fill="#000000" fill-opacity="1"></use></g><g><use xlink:href="#fIVI8ITHm" opacity="1" fill="#000000" fill-opacity="1"></use></g><g><use xlink:href="#a3VrE4qShJ" opacity="1" fill="#000000" fill-opacity="1"></use></g><g><use xlink:href="#b4Egz52CMV" opacity="1" fill="#000000" fill-opacity="1"></use></g><g><use xlink:href="#c5p3dwdfZc" opacity="1" fill="#000000" fill-opacity="1"></use></g><g><use xlink:href="#b7L3K3xOoc" opacity="1" fill="#000000" fill-opacity="1"></use></g><g><use xlink:href="#a2bhrvSXJ" opacity="1" fill="#000000" fill-opacity="1"></use></g><g><use xlink:href="#banOXtHHO" opacity="1" fill="#000000" fill-opacity="1"></use></g><g><use xlink:href="#b7ej8Pnz9" opacity="1" fill="#000000" fill-opacity="1"></use></g><g><use xlink:href="#aB5dYeFnn" opacity="1" fill="#000000" fill-opacity="1"></use></g><g><use xlink:href="#a1dY7mNHtt" opacity="1" fill="#000000" fill-opacity="1"></use></g><g><use xlink:href="#c2lp5hFelX" opacity="1" fill="#000000" fill-opacity="1"></use></g><g><use xlink:href="#a49PzZ0hUL" opacity="1" fill="#000000" fill-opacity="1"></use></g><g><use xlink:href="#b3VQJvtRw" opacity="1" fill="#fac151" fill-opacity="1"></use></g><g><use xlink:href="#a9sJmJSaWi" opacity="1" fill="#fac151" fill-opacity="1"></use></g><g><use xlink:href="#d4wccrqSH6" opacity="1" fill="#fac151" fill-opacity="1"></use></g><g><use xlink:href="#bN8KrLaBQ" opacity="1" fill="#fac151" fill-opacity="1"></use></g><g><use xlink:href="#aiXTB7Ccn" opacity="1" fill="#fac151" fill-opacity="1"></use></g><g><use xlink:href="#b1DBSGw96Y" opacity="1" fill="#fac151" fill-opacity="1"></use></g><g><use xlink:href="#a1j7RRRsqs" opacity="1" fill="#fac151" fill-opacity="1"></use></g><g><use xlink:href="#d4DT6S1PeN" opacity="1" fill="#fac151" fill-opacity="1"></use></g><g><use xlink:href="#azDYvSJ1r" opacity="1" fill="#fac151" fill-opacity="1"></use></g><g><use xlink:href="#f18L6MwaHW" opacity="1" fill="#fac151" fill-opacity="1"></use></g><g><use xlink:href="#a2pX1EBkZB" opacity="1" fill="#ffde7f" fill-opacity="1"></use></g><g><use xlink:href="#b1dwBnOF0v" opacity="1" fill="#ffde7f" fill-opacity="1"></use></g><g><use xlink:href="#a2BNy0qelz" opacity="1" fill="#ffde7f" fill-opacity="1"></use></g><g><use xlink:href="#b2243N7Mg0" opacity="1" fill="#ffde7f" fill-opacity="1"></use></g><g><use xlink:href="#coY1MeUEX" opacity="1" fill="#ffde7f" fill-opacity="1"></use></g><g><use xlink:href="#g3R0nu1Sx8" opacity="1" fill="#ffde7f" fill-opacity="1"></use></g><g><use xlink:href="#b921eU7XO" opacity="1" fill="#ffde7f" fill-opacity="1"></use></g><g><use xlink:href="#c6vkiXWP8N" opacity="1" fill="#ffde7f" fill-opacity="1"></use></g><g><use xlink:href="#c1BcfrtEBa" opacity="1" fill="#fac151" fill-opacity="1"></use></g><g><use xlink:href="#a5YsOTZzm" opacity="1" fill="#fac151" fill-opacity="1"></use></g><g><use xlink:href="#b3fpJFreM" opacity="1" fill="#fac151" fill-opacity="1"></use></g><g><use xlink:href="#aDD1sbycf" opacity="1" fill="#fac151" fill-opacity="1"></use></g><g><use xlink:href="#b3QyOHN1Np" opacity="1" fill="#fac151" fill-opacity="1"></use></g><g><use xlink:href="#b2r1AZa4PC" opacity="1" fill="#fac151" fill-opacity="1"></use></g><g><use xlink:href="#d8BvVYLBu" opacity="1" fill="#ea9248" fill-opacity="1"></use></g><g><use xlink:href="#b2bDHvMqRe" opacity="1" fill="#ea9248" fill-opacity="1"></use></g><g><use xlink:href="#flZWi0O7D" opacity="1" fill="#ea9248" fill-opacity="1"></use></g><g><use xlink:href="#b3YUevd81" opacity="1" fill="#ea9248" fill-opacity="1"></use></g><g><use xlink:href="#d1AqzQBfn5" opacity="1" fill="#ea9248" fill-opacity="1"></use></g><g><use xlink:href="#eCuKbmHNK" opacity="1" fill="#ea9248" fill-opacity="1"></use></g><g><use xlink:href="#aKr7iVTjk" opacity="1" fill="#ea9248" fill-opacity="1"></use></g><g><use xlink:href="#aKVFgqyhQ" opacity="1" fill="#ea9248" fill-opacity="1"></use></g></g></g></svg>